#N canvas 952 0 958 956 12;
#X declare -lib Gem;
#X obj 730 36 declare -lib Gem;
#X msg 337 61 create;
#X msg 346 94 destroy;
#X obj 357 123 tgl 19 0 empty empty empty 0 -10 0 12 #fcfcfc #000000 #000000 0 1;
#X obj 230 168 pix_grey;
#X floatatom 299 274 5 0 0 0 - - - 0;
#X obj 337 153 gemwin;
#X obj 141 88 gemhead;
#X obj 142 130 pix_video;
#X obj 142 366 rectangle 4 3;
#X obj 141 51 tgl 19 0 empty empty empty 0 -10 0 12 #fcfcfc #000000 #000000 0 1;
#X obj 142 320 pix_texture;
#X obj 142 280 pix_flip;
#X msg 46 252 horizontal;
#X floatatom 372 285 5 0 0 0 - - - 0;
#X obj 726 777 dac~;
#X obj 230 222 pix_blob 4;
#X obj 293 478 select 0 1 2 3;
#X msg 274 530 52;
#X msg 310 530 64;
#X msg 346 530 76;
#X msg 382 530 88;
#X obj 314 588 mtof;
#X obj 314 621 osc~;
#X obj 579 771 tabwrite~ oscil;
#X obj 811 626 vsl 19 162 0 127 0 0 empty empty empty 0 -9 0 12 #fcfcfc #000000 #000000 0 1;
#X obj 454 480 select 0 1 2 3;
#X obj 475 590 mtof;
#X obj 475 623 osc~;
#X msg 435 532 84;
#X msg 471 532 48;
#X msg 507 532 60;
#X msg 543 532 72;
#X obj 300 436 random 4;
#X obj 247 301 int;
#X obj 427 304 int;
#X obj 298 404 bng 19 250 50 0 empty empty empty 0 -10 0 12 #fcfcfc #000000 #000000;
#X obj 283 337 bng 19 250 50 0 empty empty empty 0 -10 0 12 #fcfcfc #000000 #000000;
#X obj 462 438 random 4;
#X obj 460 406 bng 19 250 50 0 empty empty empty 0 -10 0 12 #fcfcfc #000000 #000000;
#X obj 445 339 bng 19 250 50 0 empty empty empty 0 -10 0 12 #fcfcfc #000000 #000000;
#X obj 250 375 metro 100;
#X obj 412 377 metro 100;
#X obj 427 278 * 200;
#X obj 416 588 * 10;
#X floatatom 548 290 5 0 0 0 - - - 0;
#X obj 630 485 select 0 1 2 3;
#X obj 651 595 mtof;
#X obj 651 628 osc~;
#X obj 603 309 int;
#X obj 638 443 random 4;
#X obj 636 411 bng 19 250 50 0 empty empty empty 0 -10 0 12 #fcfcfc #000000 #000000;
#X obj 621 344 bng 19 250 50 0 empty empty empty 0 -10 0 12 #fcfcfc #000000 #000000;
#X obj 588 382 metro 100;
#X obj 603 283 * 200;
#X obj 592 593 * 10;
#X msg 611 537 50;
#X msg 647 537 62;
#X msg 683 537 74;
#X msg 719 537 86;
#X obj 247 275 * 300;
#X obj 247 590 * 0.75;
#N canvas 0 50 450 250 (subpatch) 0;
#X array oscil 100 float 3;
#A 0 0.275851 0.280883 0.283796 0.284536 0.283081 0.279438 0.273653 0.265796 0.25597 0.244306 0.230956 0.216105 0.199954 0.182726 0.164657 0.145994 0.126994 0.10792 0.0890335 0.0705933 0.0528521 0.0360526 0.0204242 0.00617664 -0.00649946 -0.0174365 -0.0264922 -0.0335493 -0.0385234 -0.0413605 -0.0420369 -0.0405609 -0.036971 -0.0313335 -0.0237522 -0.0143554 -0.00329779 0.00924142 0.0230622 0.0379452 0.0536536 0.0699401 0.086549 0.103219 0.119689 0.135698 0.150995 0.165337 0.178494 0.190256 0.200428 0.208843 0.215358 0.219857 0.222253 0.222488 0.220535 0.216404 0.210132 0.201788 0.191469 0.179301 0.165439 0.150063 -0.102057 -0.0855021 -0.0698339 -0.0552827 -0.0420633 -0.0303708 -0.0203779 -0.0122345 -0.00606135 -0.00194857 4.30673e-05 -0.000117615 -0.00242987 -0.00686478 -0.0133558 -0.0218087 -0.0321013 -0.0440842 -0.0575837 -0.0724046 -0.0883287 -0.105124 -0.122545 -0.140337 -0.158241 -0.175993 -0.193334 -0.210008 -0.225771 -0.24039 -0.253647 -0.265347 -0.275316 -0.283405 -0.289492 -0.293481;
#X coords 0 1 100 -1 200 140 1;
#X restore 32 630 graph;
#X obj 34 533 tgl 19 0 empty empty empty 0 -10 0 12 #fcfcfc #000000 #000000 0 1;
#X msg 34 557 \; pd dsp \$1;
#X obj 544 698 tgl 19 0 empty empty empty 0 -10 0 12 #fcfcfc #000000 #000000 0 1;
#X obj 570 715 metro 10;
#X obj 275 762 soundfiler;
#X floatatom 278 801 10 0 0 0 - - - 0;
#X obj 281 845 expr 44100/$f1;
#X obj 280 890 phasor~;
#X obj 280 924 *~;
#X obj 281 980 dac~;
#X obj 444 764 vsl 19 162 0 1 0 0 empty empty empty 0 -9 0 12 #fcfcfc #000000 #000000 0 1;
#X floatatom 447 953 5 0 0 0 - - - 0;
#X msg 243 852 0;
#X obj 281 950 tabread4~ bongo;
#N canvas 0 50 450 250 (subpatch) 0;
#X array bongo 46550 float 2;
#X coords 0 1 46550 -1 200 140 1;
#X restore 33 802 graph;
#X obj 273 699 loadbang;
#X msg 274 731 read -resize bongo20.wav bongo, f 35;
#X obj 663 710 *~ 0.15;
#X obj 741 708 *~ 0.3;
#X text 19 202 3 Invertir la imagen de salida \, para dar la impresión de un espejo;
#X text 411 62 1 Crear o destruir la ventana emergente para la captura por la wbcam;
#X text 739 67 Extención de Gem;
#X text 670 358 4 Intento de música de fondo cuando se detecte ya sea un ambiente muy oscuro \, o la proximidad del jugador;
#X text 77 395 forma en la que saldrá la imagen en la ventana emergente. En este caso será un rectángulo;
#X text 30 58 2 Mostrará en la ventana emergente \, lo que la cámara capte (al jugador);
#X text 120 522 Mensaje global para el control del audio;
#X text 632 817 5 Salida del audio;
#X text 86 772 Salida gráfica;
#X text 513 878 Sonido de bongo \, para aplicación en posibles mejoras a futuro;
#X connect 1 0 6 0;
#X connect 2 0 6 0;
#X connect 3 0 6 0;
#X connect 4 0 16 0;
#X connect 7 0 8 0;
#X connect 8 0 4 0;
#X connect 10 0 7 0;
#X connect 11 0 9 0;
#X connect 12 0 11 0;
#X connect 13 0 12 0;
#X connect 16 0 12 0;
#X connect 16 1 5 0;
#X connect 16 1 60 0;
#X connect 16 2 14 0;
#X connect 16 2 43 0;
#X connect 16 3 45 0;
#X connect 16 3 54 0;
#X connect 17 0 18 0;
#X connect 17 1 19 0;
#X connect 17 2 20 0;
#X connect 17 3 21 0;
#X connect 18 0 22 0;
#X connect 19 0 22 0;
#X connect 20 0 22 0;
#X connect 21 0 22 0;
#X connect 22 0 61 0;
#X connect 23 0 80 0;
#X connect 25 0 80 1;
#X connect 26 0 29 0;
#X connect 26 1 30 0;
#X connect 26 2 31 0;
#X connect 26 3 32 0;
#X connect 27 0 44 0;
#X connect 28 0 80 0;
#X connect 29 0 27 0;
#X connect 30 0 27 0;
#X connect 31 0 27 0;
#X connect 32 0 27 0;
#X connect 33 0 17 0;
#X connect 34 0 37 0;
#X connect 35 0 40 0;
#X connect 36 0 33 0;
#X connect 37 0 41 0;
#X connect 38 0 26 0;
#X connect 39 0 38 0;
#X connect 40 0 42 0;
#X connect 41 0 36 0;
#X connect 42 0 39 0;
#X connect 43 0 35 0;
#X connect 43 0 44 0;
#X connect 44 0 28 0;
#X connect 46 0 56 0;
#X connect 46 1 57 0;
#X connect 46 2 58 0;
#X connect 46 3 59 0;
#X connect 47 0 55 0;
#X connect 48 0 81 0;
#X connect 49 0 52 0;
#X connect 50 0 46 0;
#X connect 51 0 50 0;
#X connect 52 0 53 0;
#X connect 53 0 51 0;
#X connect 54 0 49 0;
#X connect 54 0 55 0;
#X connect 55 0 48 0;
#X connect 56 0 47 0;
#X connect 57 0 47 0;
#X connect 58 0 47 0;
#X connect 59 0 47 0;
#X connect 60 0 34 0;
#X connect 60 0 61 0;
#X connect 61 0 23 0;
#X connect 63 0 64 0;
#X connect 65 0 66 0;
#X connect 66 0 24 0;
#X connect 67 0 68 0;
#X connect 68 0 69 0;
#X connect 68 0 71 1;
#X connect 69 0 70 0;
#X connect 70 0 71 0;
#X connect 71 0 76 0;
#X connect 73 0 70 0;
#X connect 73 0 74 0;
#X connect 75 0 70 0;
#X connect 78 0 79 0;
#X connect 79 0 67 0;
#X connect 80 0 15 0;
#X connect 80 0 24 0;
#X connect 81 0 15 1;
